<mxfile host="65bd71144e" modified="2020-10-17T07:43:30.204Z" agent="5.0 (Macintosh; Intel Mac OS X 10_15_7) AppleWebKit/537.36 (KHTML, like Gecko) Code/1.50.0 Chrome/83.0.4103.122 Electron/9.2.1 Safari/537.36" etag="_msvm67JjiQzNzXXtcgp" version="13.6.5">
    <diagram id="GTJh1MHkDbuRaUY5mgAX" name="Page-1">
        <mxGraphModel dx="684" dy="241" grid="1" gridSize="10" guides="1" tooltips="1" connect="1" arrows="1" fold="1" page="1" pageScale="1" pageWidth="827" pageHeight="1169" math="0" shadow="0">
            <root>
                <mxCell id="0"/>
                <mxCell id="1" parent="0"/>
                <mxCell id="Lx6sy5NVoJrhivqEcbPI-17" style="edgeStyle=orthogonalEdgeStyle;rounded=0;orthogonalLoop=1;jettySize=auto;html=1;startArrow=none;startFill=0;fontSize=15;" parent="1" source="Lx6sy5NVoJrhivqEcbPI-1" target="Lx6sy5NVoJrhivqEcbPI-6" edge="1">
                    <mxGeometry relative="1" as="geometry"/>
                </mxCell>
                <mxCell id="Lx6sy5NVoJrhivqEcbPI-18" style="edgeStyle=orthogonalEdgeStyle;rounded=0;orthogonalLoop=1;jettySize=auto;html=1;startArrow=none;startFill=0;fontSize=15;" parent="1" source="Lx6sy5NVoJrhivqEcbPI-1" target="Lx6sy5NVoJrhivqEcbPI-5" edge="1">
                    <mxGeometry relative="1" as="geometry">
                        <Array as="points">
                            <mxPoint x="390" y="370"/>
                            <mxPoint x="454" y="370"/>
                        </Array>
                    </mxGeometry>
                </mxCell>
                <mxCell id="2" value="4" style="edgeLabel;html=1;align=center;verticalAlign=middle;resizable=0;points=[];fontSize=15;fontStyle=1" vertex="1" connectable="0" parent="Lx6sy5NVoJrhivqEcbPI-18">
                    <mxGeometry x="-0.7258" y="2" relative="1" as="geometry">
                        <mxPoint as="offset"/>
                    </mxGeometry>
                </mxCell>
                <mxCell id="Lx6sy5NVoJrhivqEcbPI-22" value="4" style="edgeStyle=orthogonalEdgeStyle;rounded=0;orthogonalLoop=1;jettySize=auto;html=1;startArrow=none;startFill=0;fontSize=15;entryX=0;entryY=0.5;entryDx=0;entryDy=0;" parent="1" source="Lx6sy5NVoJrhivqEcbPI-1" target="Lx6sy5NVoJrhivqEcbPI-8" edge="1">
                    <mxGeometry relative="1" as="geometry">
                        <mxPoint x="520" y="290" as="targetPoint"/>
                        <Array as="points">
                            <mxPoint x="450" y="282"/>
                            <mxPoint x="450" y="282"/>
                        </Array>
                    </mxGeometry>
                </mxCell>
                <mxCell id="Lx6sy5NVoJrhivqEcbPI-1" value="AWS Lambda" style="outlineConnect=0;fontColor=#232F3E;gradientColor=none;strokeColor=#ffffff;fillColor=#232F3E;dashed=0;verticalLabelPosition=middle;verticalAlign=bottom;align=center;html=1;whiteSpace=wrap;fontSize=10;fontStyle=1;spacing=3;shape=mxgraph.aws4.productIcon;prIcon=mxgraph.aws4.lambda;" parent="1" vertex="1">
                    <mxGeometry x="350" y="240" width="80" height="100" as="geometry"/>
                </mxCell>
                <mxCell id="Lx6sy5NVoJrhivqEcbPI-2" value="Amazon EC2" style="outlineConnect=0;fontColor=#232F3E;gradientColor=none;strokeColor=#ffffff;fillColor=#232F3E;dashed=0;verticalLabelPosition=middle;verticalAlign=bottom;align=center;html=1;whiteSpace=wrap;fontSize=10;fontStyle=1;spacing=3;shape=mxgraph.aws4.productIcon;prIcon=mxgraph.aws4.ec2;" parent="1" vertex="1">
                    <mxGeometry x="200" y="120" width="80" height="100" as="geometry"/>
                </mxCell>
                <mxCell id="Lx6sy5NVoJrhivqEcbPI-16" value="3" style="edgeStyle=orthogonalEdgeStyle;rounded=0;orthogonalLoop=1;jettySize=auto;html=1;startArrow=none;startFill=0;fontSize=15;" parent="1" source="Lx6sy5NVoJrhivqEcbPI-3" target="Lx6sy5NVoJrhivqEcbPI-1" edge="1">
                    <mxGeometry relative="1" as="geometry">
                        <Array as="points">
                            <mxPoint x="330" y="280"/>
                            <mxPoint x="330" y="280"/>
                        </Array>
                    </mxGeometry>
                </mxCell>
                <mxCell id="Lx6sy5NVoJrhivqEcbPI-3" value="Amazon CloudWatch &amp;amp; EventBridge" style="outlineConnect=0;fontColor=#232F3E;gradientColor=none;strokeColor=#ffffff;fillColor=#232F3E;dashed=0;verticalLabelPosition=middle;verticalAlign=bottom;align=center;html=1;whiteSpace=wrap;fontSize=10;fontStyle=1;spacing=3;shape=mxgraph.aws4.productIcon;prIcon=mxgraph.aws4.cloudwatch;" parent="1" vertex="1">
                    <mxGeometry x="200" y="240" width="80" height="120" as="geometry"/>
                </mxCell>
                <mxCell id="Lx6sy5NVoJrhivqEcbPI-11" style="edgeStyle=orthogonalEdgeStyle;rounded=0;orthogonalLoop=1;jettySize=auto;html=1;fontSize=10;startArrow=classic;startFill=1;" parent="1" source="Lx6sy5NVoJrhivqEcbPI-4" target="Lx6sy5NVoJrhivqEcbPI-2" edge="1">
                    <mxGeometry relative="1" as="geometry">
                        <Array as="points">
                            <mxPoint x="100" y="160"/>
                        </Array>
                    </mxGeometry>
                </mxCell>
                <mxCell id="Lx6sy5NVoJrhivqEcbPI-12" value="&lt;b style=&quot;font-size: 15px;&quot;&gt;1&lt;/b&gt;" style="edgeLabel;html=1;align=center;verticalAlign=middle;resizable=0;points=[];fontSize=15;" parent="Lx6sy5NVoJrhivqEcbPI-11" vertex="1" connectable="0">
                    <mxGeometry x="0.0435" y="-26" relative="1" as="geometry">
                        <mxPoint x="26" y="-27" as="offset"/>
                    </mxGeometry>
                </mxCell>
                <mxCell id="Lx6sy5NVoJrhivqEcbPI-14" style="edgeStyle=orthogonalEdgeStyle;rounded=0;orthogonalLoop=1;jettySize=auto;html=1;startArrow=none;startFill=0;fontSize=15;" parent="1" source="Lx6sy5NVoJrhivqEcbPI-4" target="Lx6sy5NVoJrhivqEcbPI-3" edge="1">
                    <mxGeometry relative="1" as="geometry">
                        <Array as="points">
                            <mxPoint x="160" y="280"/>
                            <mxPoint x="160" y="280"/>
                        </Array>
                    </mxGeometry>
                </mxCell>
                <mxCell id="Lx6sy5NVoJrhivqEcbPI-15" value="2" style="edgeLabel;html=1;align=center;verticalAlign=middle;resizable=0;points=[];fontSize=15;" parent="Lx6sy5NVoJrhivqEcbPI-14" vertex="1" connectable="0">
                    <mxGeometry y="-2" relative="1" as="geometry">
                        <mxPoint as="offset"/>
                    </mxGeometry>
                </mxCell>
                <mxCell id="Lx6sy5NVoJrhivqEcbPI-32" style="edgeStyle=orthogonalEdgeStyle;rounded=0;orthogonalLoop=1;jettySize=auto;html=1;entryX=0.5;entryY=0;entryDx=0;entryDy=0;startArrow=none;startFill=0;fontSize=15;" parent="1" source="Lx6sy5NVoJrhivqEcbPI-4" target="Lx6sy5NVoJrhivqEcbPI-31" edge="1">
                    <mxGeometry relative="1" as="geometry"/>
                </mxCell>
                <mxCell id="Lx6sy5NVoJrhivqEcbPI-33" value="1" style="edgeLabel;html=1;align=center;verticalAlign=middle;resizable=0;points=[];fontSize=15;" parent="Lx6sy5NVoJrhivqEcbPI-32" vertex="1" connectable="0">
                    <mxGeometry x="-0.3" y="1" relative="1" as="geometry">
                        <mxPoint as="offset"/>
                    </mxGeometry>
                </mxCell>
                <mxCell id="Lx6sy5NVoJrhivqEcbPI-4" value="AWS Systems Manager" style="outlineConnect=0;fontColor=#232F3E;gradientColor=none;strokeColor=#ffffff;fillColor=#232F3E;dashed=0;verticalLabelPosition=middle;verticalAlign=bottom;align=center;html=1;whiteSpace=wrap;fontSize=10;fontStyle=1;spacing=3;shape=mxgraph.aws4.productIcon;prIcon=mxgraph.aws4.systems_manager;" parent="1" vertex="1">
                    <mxGeometry x="60" y="240" width="80" height="110" as="geometry"/>
                </mxCell>
                <mxCell id="Lx6sy5NVoJrhivqEcbPI-5" value="Amazon DynamoDB" style="outlineConnect=0;fontColor=#232F3E;gradientColor=none;strokeColor=#ffffff;fillColor=#232F3E;dashed=0;verticalLabelPosition=middle;verticalAlign=bottom;align=center;html=1;whiteSpace=wrap;fontSize=10;fontStyle=1;spacing=3;shape=mxgraph.aws4.productIcon;prIcon=mxgraph.aws4.dynamodb;" parent="1" vertex="1">
                    <mxGeometry x="414" y="400" width="80" height="110" as="geometry"/>
                </mxCell>
                <mxCell id="Lx6sy5NVoJrhivqEcbPI-6" value="Amazon S3" style="outlineConnect=0;fontColor=#232F3E;gradientColor=none;strokeColor=#ffffff;fillColor=#232F3E;dashed=0;verticalLabelPosition=middle;verticalAlign=bottom;align=center;html=1;whiteSpace=wrap;fontSize=10;fontStyle=1;spacing=3;shape=mxgraph.aws4.productIcon;prIcon=mxgraph.aws4.s3;" parent="1" vertex="1">
                    <mxGeometry x="280" y="400" width="80" height="100" as="geometry"/>
                </mxCell>
                <mxCell id="Lx6sy5NVoJrhivqEcbPI-27" style="edgeStyle=orthogonalEdgeStyle;rounded=0;orthogonalLoop=1;jettySize=auto;html=1;startArrow=none;startFill=0;fontSize=15;" parent="1" source="Lx6sy5NVoJrhivqEcbPI-8" target="Lx6sy5NVoJrhivqEcbPI-23" edge="1">
                    <mxGeometry relative="1" as="geometry"/>
                </mxCell>
                <mxCell id="Lx6sy5NVoJrhivqEcbPI-28" value="5" style="edgeLabel;html=1;align=center;verticalAlign=middle;resizable=0;points=[];fontSize=15;" parent="Lx6sy5NVoJrhivqEcbPI-27" vertex="1" connectable="0">
                    <mxGeometry x="-0.2268" y="-15" relative="1" as="geometry">
                        <mxPoint as="offset"/>
                    </mxGeometry>
                </mxCell>
                <mxCell id="Lx6sy5NVoJrhivqEcbPI-8" value="&lt;font size=&quot;1&quot; color=&quot;#000000&quot;&gt;&lt;b style=&quot;background-color: rgb(255 , 255 , 255)&quot;&gt;Slack&lt;/b&gt;&lt;/font&gt;" style="shape=image;html=1;verticalAlign=top;verticalLabelPosition=bottom;labelBackgroundColor=#ffffff;imageAspect=0;aspect=fixed;image=https://cdn2.iconfinder.com/data/icons/social-media-2189/48/29-Slack-128.png;fontSize=10;" parent="1" vertex="1">
                    <mxGeometry x="510" y="240" width="84" height="84" as="geometry"/>
                </mxCell>
                <mxCell id="Lx6sy5NVoJrhivqEcbPI-29" style="edgeStyle=orthogonalEdgeStyle;rounded=0;orthogonalLoop=1;jettySize=auto;html=1;startArrow=none;startFill=0;fontSize=15;dashed=1;" parent="1" source="Lx6sy5NVoJrhivqEcbPI-23" target="Lx6sy5NVoJrhivqEcbPI-6" edge="1">
                    <mxGeometry relative="1" as="geometry">
                        <Array as="points">
                            <mxPoint x="670" y="540"/>
                            <mxPoint x="320" y="540"/>
                        </Array>
                    </mxGeometry>
                </mxCell>
                <mxCell id="Lx6sy5NVoJrhivqEcbPI-30" value="6" style="edgeLabel;html=1;align=center;verticalAlign=middle;resizable=0;points=[];fontSize=15;" parent="Lx6sy5NVoJrhivqEcbPI-29" vertex="1" connectable="0">
                    <mxGeometry x="-0.098" y="1" relative="1" as="geometry">
                        <mxPoint as="offset"/>
                    </mxGeometry>
                </mxCell>
                <mxCell id="Lx6sy5NVoJrhivqEcbPI-23" value="&lt;font style=&quot;font-size: 10px&quot;&gt;&lt;b&gt;User&lt;/b&gt;&lt;/font&gt;" style="outlineConnect=0;fontColor=#232F3E;gradientColor=none;strokeColor=#232F3E;fillColor=#ffffff;dashed=0;verticalLabelPosition=bottom;verticalAlign=top;align=center;html=1;fontSize=12;fontStyle=0;aspect=fixed;shape=mxgraph.aws4.resourceIcon;resIcon=mxgraph.aws4.user;" parent="1" vertex="1">
                    <mxGeometry x="630" y="400" width="80" height="80" as="geometry"/>
                </mxCell>
                <mxCell id="Lx6sy5NVoJrhivqEcbPI-31" value="&lt;font style=&quot;font-size: 10px&quot; color=&quot;#000000&quot;&gt;&lt;b style=&quot;background-color: rgb(255 , 255 , 255)&quot;&gt;GitHub&lt;/b&gt;&lt;/font&gt;" style="shape=image;html=1;verticalAlign=top;verticalLabelPosition=bottom;labelBackgroundColor=#ffffff;imageAspect=0;aspect=fixed;image=https://cdn4.iconfinder.com/data/icons/miu-social/60/github-social-media-128.png;fontSize=15;" parent="1" vertex="1">
                    <mxGeometry x="50" y="410" width="100" height="100" as="geometry"/>
                </mxCell>
            </root>
        </mxGraphModel>
    </diagram>
</mxfile>
